<svg xmlns="http://www.w3.org/2000/svg" viewBox="0 0 19.26 23.19"><defs><style>.cls-1{fill:#fff;}</style></defs><title>Ресурс 18</title><g id="Слой_2" data-name="Слой 2"><g id="Слой_1-2" data-name="Слой 1"><path class="cls-1" d="M7.82,1.27V16.78L2.93,11.9a1.31,1.31,0,0,0-.9-.37,1.31,1.31,0,0,0-.9.37l-.76.76a1.28,1.28,0,0,0,0,1.8l8.36,8.36a1.28,1.28,0,0,0,1.8,0l8.36-8.36a1.28,1.28,0,0,0,0-1.8l-.76-.76a1.31,1.31,0,0,0-.9-.37,1.26,1.26,0,0,0-.88.37l-4.91,4.94V1.29A1.32,1.32,0,0,0,10.14,0H9.06A1.29,1.29,0,0,0,7.81,1.3"/></g></g></svg>