<svg xmlns="http://www.w3.org/2000/svg" viewBox="0 0 9 6.9"><defs><style>.cls-1{fill:#fff;}</style></defs><title>Ресурс 17</title><g id="Слой_2" data-name="Слой 2"><g id="Слой_1-2" data-name="Слой 1"><path class="cls-1" d="M8.84,1,8.05.16A.54.54,0,0,0,7.65,0a.53.53,0,0,0-.39.16L3.45,4,1.74,2.26a.57.57,0,0,0-.39-.16.58.58,0,0,0-.4.16l-.79.79a.54.54,0,0,0-.16.4.51.51,0,0,0,.16.39L2.26,6l.79.79a.58.58,0,0,0,.4.16.55.55,0,0,0,.39-.16L4.63,6,8.84,1.74A.53.53,0,0,0,9,1.35.54.54,0,0,0,8.84,1Z"/></g></g></svg>