<svg xmlns="http://www.w3.org/2000/svg" viewBox="0 0 14.98 19.26"><defs><style>.cls-1{fill:#fff;opacity:0.4;}</style></defs><title>Ресурс 32</title><g id="Слой_2" data-name="Слой 2"><g id="Слой_1-2" data-name="Слой 1"><path class="cls-1" d="M.05,10.31A7.27,7.27,0,0,1,.3,7.39a7.35,7.35,0,0,1,7-5.28v-2A.14.14,0,0,1,7.49,0l4.07,3a.13.13,0,0,1,0,.2l-4.07,3a.14.14,0,0,1-.23-.1v-2A5.33,5.33,0,0,0,2.45,7.39a5.27,5.27,0,0,0,.75,5.36A1,1,0,1,1,1.6,14a7.3,7.3,0,0,1-1.55-3.7Zm11.74-3.8a5.17,5.17,0,0,1,1.16,3,5.33,5.33,0,0,1-5.23,5.59v-2a.13.13,0,0,0-.22-.1l-4.07,3a.12.12,0,0,0,0,.2l4.06,3a.15.15,0,0,0,.23-.11v-2a7.35,7.35,0,0,0,7-5.29,7.26,7.26,0,0,0-1.3-6.61,1,1,0,0,0-1.4-.2,1,1,0,0,0-.19,1.45Z"/></g></g></svg>