<svg xmlns="http://www.w3.org/2000/svg" viewBox="0 0 99.35 42.55"><defs><style>.cls-1,.cls-3,.cls-6{fill:none;}.cls-1,.cls-6{stroke:#fff;stroke-linecap:round;stroke-linejoin:round;stroke-width:2px;}.cls-2{fill:#f7b600;}.cls-3{stroke:#f7b600;stroke-miterlimit:10;}.cls-4{fill:#fff;}.cls-4,.cls-5{opacity:0.4;}.cls-6{stroke-dasharray:3.76 3.76;}</style></defs><title>Ресурс 4</title><g id="Слой_2" data-name="Слой 2"><g id="Слой_1-2" data-name="Слой 1"><line class="cls-1" x1="50.13" y1="15.44" x2="70.43" y2="15.44"/><line class="cls-1" x1="50.13" y1="21.36" x2="70.43" y2="21.36"/><line class="cls-1" x1="50.13" y1="27.29" x2="64.02" y2="27.29"/><path class="cls-2" d="M28.83,30.34v-.63a1.6,1.6,0,0,0-1.6-1.61h-.76a15,15,0,0,1-1.38-6.39c.17-.31.33-.59.47-.82.88-1.52,2.21-5,2.21-6.68V14c0-.29,0-.52,0-.72,0,0,0-.08,0-.11a5.35,5.35,0,0,0-10.69,0A5.21,5.21,0,0,0,17.44,15v0l2.34,9.31a30.29,30.29,0,0,1-1.44,3.73h-.73A1.61,1.61,0,0,0,16,29.71v.63a1.6,1.6,0,0,0-1.07,1.5v1.07a.54.54,0,0,0,.54.54H29.37a.54.54,0,0,0,.53-.54V31.84A1.59,1.59,0,0,0,28.83,30.34Zm-9.73-13a6.74,6.74,0,0,0,.62.42,27.13,27.13,0,0,1,.57,4,1.94,1.94,0,0,1,0,.24ZM26.7,14v.23a17.85,17.85,0,0,1-2.12,6.23c-.7,1.21-2.16,3.73-2.16,6.06a.54.54,0,0,0,1.07,0,7.88,7.88,0,0,1,.66-2.84,15,15,0,0,0,1.11,4.44H19.51c.63-1.4,1.84-4.41,1.84-6.41a31.72,31.72,0,0,0-.7-4.79l-1.23-.75a4.22,4.22,0,0,1-1.27-3,4.27,4.27,0,0,1,8.42-1m-9.49,17.6a.54.54,0,0,1,.53-.54h9.62a.54.54,0,0,1,.54.54v.53H17.08Zm11.75,2.67H16v-.54a.54.54,0,0,1,.54-.53H28.3a.53.53,0,0,1,.53.53Z"/><ellipse class="cls-3" cx="19.46" cy="13.15" rx="1.49" ry="2.13"/><ellipse class="cls-3" cx="24.15" cy="17.69" rx="2.13" ry="1.81" transform="translate(-0.4 34.82) rotate(-71.14)"/><ellipse class="cls-3" cx="24.65" cy="10.97" rx="1.61" ry="2.29" transform="translate(-0.54 20.64) rotate(-45)"/><circle class="cls-4" cx="81.01" cy="15.1" r="1.63"/><circle class="cls-4" cx="81.01" cy="21.03" r="1.63"/><circle class="cls-4" cx="81.01" cy="26.95" r="1.63"/><g class="cls-5"><line class="cls-1" x1="39.66" y1="9.39" x2="39.66" y2="11.39"/><line class="cls-6" x1="39.66" y1="15.15" x2="39.66" y2="28.3"/><line class="cls-1" x1="39.66" y1="30.18" x2="39.66" y2="32.18"/></g><path class="cls-1" d="M1,8V39.07a2.49,2.49,0,0,0,2.48,2.48H95.87a2.49,2.49,0,0,0,2.48-2.48V31a10.14,10.14,0,0,1,0-19.39V3.48A2.49,2.49,0,0,0,95.87,1H3.48A2.49,2.49,0,0,0,1,3.48V11.6"/></g></g></svg>