<svg xmlns="http://www.w3.org/2000/svg" viewBox="0 0 15.98 15.97"><defs><style>.cls-1{fill:#fff;opacity:0.4;}</style></defs><title>Ресурс 33</title><g id="Слой_2" data-name="Слой 2"><g id="Слой_1-2" data-name="Слой 1"><path class="cls-1" d="M16,12.61a.77.77,0,0,1-.24.67l-2.25,2.24a1.36,1.36,0,0,1-.4.28,1.81,1.81,0,0,1-.48.16h-.32a6.74,6.74,0,0,1-1-.11,7.54,7.54,0,0,1-1.76-.54A15.06,15.06,0,0,1,7.13,14a18,18,0,0,1-2.81-2.37,18.16,18.16,0,0,1-2-2.24,16.94,16.94,0,0,1-1.25-2A11.3,11.3,0,0,1,.39,5.81,8.72,8.72,0,0,1,.07,4.54,4,4,0,0,1,0,3.71c0-.21,0-.32,0-.34a1.62,1.62,0,0,1,.15-.49,1.32,1.32,0,0,1,.29-.39L2.71.24A.75.75,0,0,1,3.25,0a.59.59,0,0,1,.39.13,1.23,1.23,0,0,1,.29.31L5.74,3.87a.83.83,0,0,1,.08.6A1.08,1.08,0,0,1,5.54,5l-.83.83A.17.17,0,0,0,4.65,6a.35.35,0,0,0,0,.12,3.27,3.27,0,0,0,.31.82,7.09,7.09,0,0,0,.62,1,11.71,11.71,0,0,0,1.2,1.34,11.1,11.1,0,0,0,1.36,1.21,7.53,7.53,0,0,0,1,.64,2.84,2.84,0,0,0,.61.24l.21,0a.28.28,0,0,0,.11,0l.11-.06,1-1a1.05,1.05,0,0,1,.71-.27.85.85,0,0,1,.46.1h0l3.26,1.93a.85.85,0,0,1,.43.56Z"/></g></g></svg>