<svg xmlns="http://www.w3.org/2000/svg" viewBox="0 0 53.3 53.45"><defs><style>.cls-1,.cls-2{fill:none;stroke:#fff;stroke-linecap:round;stroke-linejoin:round;stroke-width:2px;}.cls-1{opacity:0.5;}</style></defs><title>Ресурс 8</title><g id="Слой_2" data-name="Слой 2"><g id="Слой_1-2" data-name="Слой 1"><line class="cls-1" x1="6.79" y1="39.54" x2="16.16" y2="39.54"/><line class="cls-1" x1="6.79" y1="43.05" x2="20.16" y2="43.05"/><line class="cls-1" x1="6.79" y1="46.55" x2="26.5" y2="46.55"/><path class="cls-2" d="M30.9,12.92,27,16.82c-1.44,1.44-2.88,2.87-4.31,4.33A2.62,2.62,0,0,0,22,22.41c-.52,2.37-1,4.74-1.52,7.12l-.28,1.31a1.87,1.87,0,0,0,.48,1.72,1.8,1.8,0,0,0,1.29.53,3,3,0,0,0,.42,0l1.45-.31c2.3-.48,4.61-1,6.91-1.45a2.79,2.79,0,0,0,1.37-.74L51.49,11.17a2.71,2.71,0,0,0,.81-1.74,1,1,0,0,0,0-.34c0-.16-.07-.33-.11-.5a7,7,0,0,0-.39-1.35,10.69,10.69,0,0,0-6-5.84A6.49,6.49,0,0,0,44.17,1H44a2.28,2.28,0,0,0-2,.75L30.9,12.92Z"/><path class="cls-2" d="M21.4,13.72H4.72A3.73,3.73,0,0,0,1,17.44V48.73a3.72,3.72,0,0,0,3.72,3.72H36a3.73,3.73,0,0,0,3.72-3.72v-16"/><line class="cls-2" x1="22.41" y1="21.49" x2="31.79" y2="30.87"/></g></g></svg>