<svg xmlns="http://www.w3.org/2000/svg" viewBox="0 0 34.72 52.97"><defs><style>.cls-1{fill:#fff;}.cls-2{fill:#f7b600;}.cls-3,.cls-4{fill:none;stroke:#fff;stroke-linecap:round;stroke-linejoin:round;stroke-width:2px;}.cls-3{opacity:0.5;}</style></defs><title>Ресурс 2</title><g id="Слой_2" data-name="Слой 2"><g id="Слой_1-2" data-name="Слой 1"><path class="cls-1" d="M7.51,40.39h9v-9h-9ZM9.3,33.22h5.37v5.37H9.3Z"/><rect class="cls-2" x="11.09" y="35.02" width="1.79" height="1.79"/><rect class="cls-2" x="21.84" y="38.6" width="1.79" height="1.79"/><rect class="cls-2" x="25.42" y="38.6" width="1.79" height="1.79"/><path class="cls-1" d="M25.42,33.22H23.63V31.43H18.26v9h1.79V35h1.79v1.79h5.37V31.43H25.42Z"/><path class="cls-2" d="M7.51,29.64h9v-9h-9ZM9.3,22.48h5.37v5.37H9.3Z"/><rect class="cls-1" x="11.09" y="24.27" width="1.79" height="1.79"/><path class="cls-2" d="M18.26,20.68v9h9v-9Zm7.16,7.17H20.05V22.48h5.37Z"/><rect class="cls-1" x="21.84" y="24.27" width="1.79" height="1.79"/><path class="cls-4" d="M33.72,52V5.28A4.28,4.28,0,0,0,29.44,1H5.28A4.28,4.28,0,0,0,1,5.28V52H4.21l3.66-4,4.25,4,5.06-4,4,4,4.53-4,3.78,4h4.26Z"/></g></g></svg>