<svg xmlns="http://www.w3.org/2000/svg" viewBox="0 0 45.11 54.13"><defs><style>.cls-1{fill:#fff;}</style></defs><title>Ресурс 12</title><g id="Слой_2" data-name="Слой 2"><g id="Слой_1-2" data-name="Слой 1"><path class="cls-1" d="M44.78,7.1,40.27,2.59a1.13,1.13,0,0,0-1.6,0,1.12,1.12,0,0,0,0,1.59l3.72,3.71-3.72,3.72a1.13,1.13,0,0,0-.33.79v3.39a4.51,4.51,0,0,0,4.51,4.51V39.47a1.13,1.13,0,1,1-2.25,0V37.21a3.39,3.39,0,0,0-3.39-3.38H36.09V4.51A4.52,4.52,0,0,0,31.58,0H9A4.51,4.51,0,0,0,4.51,4.51v40.6A4.51,4.51,0,0,0,0,49.62V53a1.13,1.13,0,0,0,1.13,1.13H39.47A1.14,1.14,0,0,0,40.6,53V49.62a4.52,4.52,0,0,0-4.51-4.51v-9h1.12a1.12,1.12,0,0,1,1.13,1.12v2.26a3.39,3.39,0,0,0,6.77,0V7.89A1.11,1.11,0,0,0,44.78,7.1ZM38.34,49.62v2.25H2.26V49.62a2.26,2.26,0,0,1,2.25-2.26H36.09A2.26,2.26,0,0,1,38.34,49.62ZM6.77,45.11V4.51A2.25,2.25,0,0,1,9,2.26H31.58a2.25,2.25,0,0,1,2.25,2.25v40.6ZM40.6,15.79V12.87l2.25-2.25V18A2.25,2.25,0,0,1,40.6,15.79Z"/><path class="cls-1" d="M30.45,4.51H10.15A1.14,1.14,0,0,0,9,5.64V19.19a1.13,1.13,0,0,0,1.13,1.13h20.3a1.13,1.13,0,0,0,1.13-1.13V5.64A1.14,1.14,0,0,0,30.45,4.51ZM29.32,18.06h-18V6.77h18Z"/></g></g></svg>