<svg xmlns="http://www.w3.org/2000/svg" viewBox="0 0 64.33 65.83"><defs><style>.cls-1{fill:#fff;}.cls-2,.cls-3{fill:none;stroke:#fff;stroke-linecap:round;stroke-linejoin:round;stroke-width:2px;}.cls-2{opacity:0.5;}</style></defs><title>Ресурс 10</title><g id="Слой_2" data-name="Слой 2"><g id="Слой_1-2" data-name="Слой 1"><path class="cls-1" d="M22.65,45.62h9V36.67h-9Zm1.79-7.16h5.38v5.36H24.44Z"/><rect class="cls-1" x="26.24" y="40.25" width="1.79" height="1.79"/><rect class="cls-1" x="36.98" y="43.83" width="1.79" height="1.79"/><rect class="cls-1" x="40.57" y="43.83" width="1.79" height="1.79"/><path class="cls-1" d="M40.57,38.46H38.78V36.67H33.4v8.95h1.79V40.25H37V42h5.38V36.67H40.57Z"/><path class="cls-1" d="M22.65,34.88h9v-9h-9Zm1.79-7.17h5.38v5.37H24.44Z"/><rect class="cls-1" x="26.24" y="29.5" width="1.79" height="1.79"/><path class="cls-1" d="M33.4,25.92v9h9v-9Zm7.17,7.16H35.19V27.71h5.38Z"/><rect class="cls-1" x="36.98" y="29.5" width="1.79" height="1.79"/><line class="cls-2" x1="22.65" y1="13.74" x2="32.02" y2="13.74"/><line class="cls-2" x1="22.65" y1="17.25" x2="36.02" y2="17.25"/><line class="cls-2" x1="22.65" y1="20.76" x2="42.36" y2="20.76"/><path class="cls-3" d="M48.87,57.21V10.51a4.3,4.3,0,0,0-4.28-4.28H20.42a4.29,4.29,0,0,0-4.27,4.28v46.7h3.21l3.66-4,4.25,4,5.06-4,4,4,4.53-4,3.78,4h4.26Z"/><polyline class="cls-3" points="1.17 8.83 1.17 1 8.67 1"/><polyline class="cls-3" points="63.17 57 63.17 64.83 55.67 64.83"/><polyline class="cls-3" points="55.5 1 63.33 1 63.33 8.5"/><polyline class="cls-3" points="8.83 64.83 1 64.83 1 57.33"/></g></g></svg>