<svg xmlns="http://www.w3.org/2000/svg" viewBox="0 0 21 19.38"><defs><style>.cls-1{fill:#fff; opacity: 0.2;}</style></defs><title>Ресурс 19</title><g id="Слой_2" data-name="Слой 2"><g id="Слой_1-2" data-name="Слой 1"><path class="cls-1" d="M20.19,12.92H18.57a.76.76,0,0,0-.8.81v2a.38.38,0,0,1-.41.4H3.64a.38.38,0,0,1-.41-.4v-2a.77.77,0,0,0-.81-.81H.81a.77.77,0,0,0-.81.81v4.84a.76.76,0,0,0,.81.81H20.19a.76.76,0,0,0,.81-.81V13.73a.77.77,0,0,0-.81-.81Z"/><path class="cls-1" d="M9.93,12.68a.8.8,0,0,0,1.14,0l4.84-4.84a.8.8,0,0,0,0-1.14L14.78,5.57a.79.79,0,0,0-1.13,0l-.81.81a.44.44,0,0,1-.73-.32V.81a.76.76,0,0,0-.8-.81H9.69a.76.76,0,0,0-.8.81V6.14a.45.45,0,0,1-.73.32l-.81-.8a.76.76,0,0,0-1.13,0L5.09,6.78a.75.75,0,0,0-.24.57.76.76,0,0,0,.24.57Z"/></g></g></svg>