<svg xmlns="http://www.w3.org/2000/svg" viewBox="0 0 61.46 50.26"><defs><style>.cls-1,.cls-3{fill:none;stroke:#fff;stroke-linecap:round;stroke-linejoin:round;stroke-width:2px;}.cls-2{fill:#fff;}.cls-3{fill-rule:evenodd;}</style></defs><title>Ресурс 9</title><g id="Слой_2" data-name="Слой 2"><g id="Слой_1-2" data-name="Слой 1"><path class="cls-1" d="M30.73,26.19A11.54,11.54,0,1,1,19.19,37.73,11.55,11.55,0,0,1,30.73,26.19Z"/><path class="cls-2" d="M30.73,32.27a.92.92,0,0,1,.92.92V44.27a.92.92,0,0,1-1.84,0V33.19A.92.92,0,0,1,30.73,32.27Z"/><path class="cls-2" d="M30.73,32.27a.91.91,0,0,1,.65.27l3.69,3.69a.93.93,0,0,1,0,1.31.92.92,0,0,1-1.3,0l-3-3-3,3a.92.92,0,0,1-1.3,0,.93.93,0,0,1,0-1.31l3.69-3.69A.91.91,0,0,1,30.73,32.27Z"/><path class="cls-3" d="M12.67,41.3a11.76,11.76,0,0,1-1.83-23.37,6.77,6.77,0,0,1-.11-1.28A7.42,7.42,0,0,1,18.12,9.2,7.33,7.33,0,0,1,22.9,11C25.2,5.76,28.14,1,36.4,1c10,0,14.76,7.78,14.76,16q0,.51,0,1a11.74,11.74,0,0,1,9.33,11.52h0A11.72,11.72,0,0,1,48.79,41.3"/></g></g></svg>