<svg xmlns="http://www.w3.org/2000/svg" viewBox="0 0 40.38 51.24"><defs><style>.cls-1{fill:#fff;}</style></defs><title>Ресурс 11</title><g id="Слой_2" data-name="Слой 2"><g id="Слой_1-2" data-name="Слой 1"><path class="cls-1" d="M37.1,5.59h-.45V4.82a2.94,2.94,0,0,0-2.87-3h0L6.68,0a3,3,0,0,0-3,3V5.59H3.27A3.28,3.28,0,0,0,0,8.86V13a3.29,3.29,0,0,0,3.27,3.28h.11l3.16,32a3,3,0,0,0,3,3H30.93A3,3,0,0,0,32.08,51a2.88,2.88,0,0,0,1.8-2.61l3.17-32.07h.05A3.29,3.29,0,0,0,40.38,13V8.86A3.28,3.28,0,0,0,37.1,5.59ZM5.91,3a.77.77,0,0,1,.7-.77L33.7,4a.78.78,0,0,1,.77.78v.77H5.91ZM34,25,28.11,26a10.38,10.38,0,0,0-15.77,0L6.46,25l-.89-8.67H34.85Zm-.19,2.25-.85,8.58L27.2,34.76l-.41.54a8.2,8.2,0,0,1-13.13,0l-.41-.54L7.5,35.82l-.85-8.58,6.6,1.18.41-.54a8.2,8.2,0,0,1,13.13,0l.41.54ZM30.93,49.05H9.5A.73.73,0,0,1,9.2,49a.87.87,0,0,1-.48-.82V48l-1-10,4.61-.85a10.38,10.38,0,0,0,15.77,0l4.58.85-1,10.28a.78.78,0,0,1-.77.77Zm7.26-36a1.09,1.09,0,0,1-1.09,1.09H3.27A1.08,1.08,0,0,1,2.19,13V8.86A1.08,1.08,0,0,1,3.27,7.77H37.1a1.09,1.09,0,0,1,1.09,1.09Z"/><path class="cls-1" d="M20.19,26.19a5.76,5.76,0,0,0-6,5.45,5.76,5.76,0,0,0,6,5.46,5.76,5.76,0,0,0,6-5.46,5.75,5.75,0,0,0-6-5.45Zm0,8.73a3.58,3.58,0,0,1-3.82-3.28,3.58,3.58,0,0,1,3.82-3.27A3.59,3.59,0,0,1,24,31.64a3.59,3.59,0,0,1-3.82,3.28Z"/></g></g></svg>