<svg xmlns="http://www.w3.org/2000/svg" viewBox="0 0 50.93 43.13"><defs><style>.cls-1{fill:none;stroke:#fff;stroke-linecap:round;stroke-linejoin:round;stroke-width:2px;}.cls-2{fill:#fff;opacity:0.2;}.cls-3{fill:#f7b600;}</style></defs><title>Ресурс 1</title><g id="Слой_2" data-name="Слой 2"><g id="Слой_1-2" data-name="Слой 1"><path class="cls-1" d="M47.08,9.42H4a3,3,0,0,0-3,3V39.14a3,3,0,0,0,3,3H46.77a3.59,3.59,0,0,0,3.14-3.62V12.41A2.76,2.76,0,0,0,47.08,9.42Z"/><path class="cls-1" d="M45.25,9.15,43.36,3a2.49,2.49,0,0,0-3.23-1.84L14.17,9"/><rect class="cls-2" x="1.95" y="15.71" width="46.94" height="5.66"/><path class="cls-3" d="M44.11,29.56H42.52a1,1,0,0,0-1.07.62l-3,6.88h2.15s.35-.93.43-1.13h2.62l.25,1.12h1.9ZM41.58,34.4l.82-2.1s.16-.44.27-.72l.14.65s.39,1.79.47,2.17Zm-3,.2c0,1.56-1.41,2.57-3.56,2.57a6.55,6.55,0,0,1-2.29-.4L33,35.09l.27.12a4.26,4.26,0,0,0,1.92.39c.59,0,1.22-.23,1.23-.73,0-.33-.27-.57-1.06-.93s-1.81-1-1.8-2c0-1.46,1.44-2.48,3.46-2.48a5.43,5.43,0,0,1,1.84.31l-.28,1.63-.19-.09A3.79,3.79,0,0,0,36.86,31c-.8,0-1.17.33-1.17.64s.43.59,1.15.93c1.18.54,1.73,1.19,1.72,2Zm-18-5,0-.15h3.18a.83.83,0,0,1,.89.61l.69,3.32a6.53,6.53,0,0,0-4.78-3.78Zm9.25-.07-3.22,7.49H24.45l-1.83-6.26a7.94,7.94,0,0,1,2.83,3.11l.22.78,2-5.12Zm.83,0h2l-1.28,7.51h-2Z"/></g></g></svg>