<svg xmlns="http://www.w3.org/2000/svg" viewBox="0 0 20 16"><defs><style>.cls-1{fill:#f7b600;}</style></defs><title>Ресурс 27</title><g id="Слой_2" data-name="Слой 2"><g id="Слой_1-2" data-name="Слой 1"><path class="cls-1" d="M10,6a3,3,0,1,0,3,3,3,3,0,0,0-3-3Zm8-3H15.6a.89.89,0,0,1-.79-.57L14.19.57A.9.9,0,0,0,13.4,0H6.6a.89.89,0,0,0-.79.57L5.19,2.43A.9.9,0,0,1,4.4,3H2A2,2,0,0,0,0,5v9a2,2,0,0,0,2,2H18a2,2,0,0,0,2-2V5a2,2,0,0,0-2-2ZM10,14a5,5,0,1,1,5-5,5,5,0,0,1-5,5Zm7.3-7.6a.7.7,0,1,1,.7-.7.7.7,0,0,1-.7.7Z"/></g></g></svg>