<svg xmlns="http://www.w3.org/2000/svg" viewBox="0 0 59.66 51.71"><defs><style>.cls-1{fill:#fff;}</style></defs><title>Ресурс 16</title><g id="Слой_2" data-name="Слой 2"><g id="Слой_1-2" data-name="Слой 1"><path class="cls-1" d="M30.83,51.71h-25A5.81,5.81,0,0,1,3.48,40.58l13-5.69.79,1.82-13,5.7a3.81,3.81,0,0,0,1.53,7.31H30.23c2-3.7,14.18-26,15.49-28.33A5,5,0,0,1,50,18.89h7.64v-6A11,11,0,0,0,46.74,2h-3V0h3A12.94,12.94,0,0,1,59.66,12.93v7a1,1,0,0,1-1,1H50a3,3,0,0,0-2.58,1.49C46,24.89,31.84,50.93,31.7,51.19A1,1,0,0,1,30.83,51.71Z"/><path class="cls-1" d="M54.69,51.71h-4a1,1,0,0,1-1-1l-1-30.82a1,1,0,0,1,1-1h9a1,1,0,0,1,.74.34,1,1,0,0,1,.24.78l-4,30.83A1,1,0,0,1,54.69,51.71Zm-3-2h2.14l3.72-28.84H50.75Z"/><path class="cls-1" d="M24.35,38.18a6.62,6.62,0,0,1-1.17-.11l-6.47-1.3a1,1,0,0,1-.79-.84,1,1,0,0,1,.54-1L22.28,32a6.87,6.87,0,0,0,2.9-2.75L41.27,1.58A3.17,3.17,0,0,1,44,0h0a3.18,3.18,0,0,1,3.16,3.19,3.18,3.18,0,0,1-.4,1.53L29.5,35.22A6,6,0,0,1,24.35,38.18ZM20,35.39l3.62.73a4,4,0,0,0,4.21-1.89L45,3.75a1.23,1.23,0,0,0,.14-.57,1.14,1.14,0,0,0-.34-.84A1.18,1.18,0,0,0,44,2h0a1.18,1.18,0,0,0-1,.58L26.9,30.24a8.91,8.91,0,0,1-3.73,3.54Z"/></g></g></svg>