<svg xmlns="http://www.w3.org/2000/svg" viewBox="0 0 75.8 74.37"><defs><style>.cls-1{fill:#fff;}.cls-2{fill:#f7b600;}.cls-3{fill:none;stroke:#fff;stroke-linecap:round;stroke-linejoin:round;stroke-width:2px;}</style></defs><g data-name="Слой 2"><g id="Слой_1-2" data-name="Слой 1"><path class="cls-1" d="M50.05,20.18a13.81,13.81,0,0,1-4.12-4.57v-.88a17.64,17.64,0,0,0-1.32-6.48l-.12-.2c-.13-.24-.24-.42-.34-.58l0-.09a5,5,0,1,0-7.54,6.37l0,0,6.26,6.49A31.33,31.33,0,0,1,43.42,24M37.75,6.39a4,4,0,0,1,4.9.71c-.34.29-.23.8,0,1.5.08.3.15.61.2.9a2,2,0,0,0-3.14,2c-.23-.16-.46-.34-.7-.53-.7-.56-1.31-1.05-1.89-.72a.63.63,0,0,0-.31.45c-.09.54.44,1.28,1.94,3a4,4,0,0,1-2.44-1.86A4,4,0,0,1,37.75,6.39Zm4.74,4.23a1,1,0,1,1-1.37-.37A1,1,0,0,1,42.49,10.62ZM39,14.81a4,4,0,0,0,.7.06,24.51,24.51,0,0,1,2.32,3c0,.06.07.13.11.2Zm5.39,8.63c-.15-1.44-.56-4.46-1.5-6.09a28.27,28.27,0,0,0-2.81-3.58c-.53-.61-1.16-1.34-1.63-1.94.94.75,2.3,1.76,3.78,1.21a2.13,2.13,0,0,0,.41-.18,1.72,1.72,0,0,0,.37-.28c1.28-1.06.92-2.88.64-4l.11.19a16.84,16.84,0,0,1,1.18,6.07c0,1.32,0,4.05,1.07,5.95a.51.51,0,0,0,.69.19.52.52,0,0,0,.19-.69,7,7,0,0,1-.79-2.62,13.9,13.9,0,0,0,3,3.1"/><path class="cls-3" d="M37.21,24.26a4.8,4.8,0,1,1-4.8-4.8,4.8,4.8,0,0,1,4.8,4.8Z"/><path class="cls-3" d="M50.89,59c-7.13-8.93-6.61-8.32-6.94-8.58L40.66,37l9.45-12.83a2.32,2.32,0,0,0-3.73-2.75l-9.55,13c-.14,0-5.83,1.41-6.16,1.54L19,24a2.32,2.32,0,1,0-3.31,3.25L29,40.82l1.75,7.1,1.93,7.86-1.07,3.8L22.2,57.92a2.78,2.78,0,0,0-1,5.48c12.77,2.26,12,2.13,12.33,2.13a2.78,2.78,0,0,0,2.67-2c2.65-9.4,2.49-8.75,2.53-9.1l1.14-.28c.12.17-.36-.44,5.2,6.53l-7,8.12a2.78,2.78,0,1,0,4.21,3.62l8.49-9.86A2.78,2.78,0,0,0,50.89,59Z"/><polyline class="cls-2" points="31.58 36.75 35.65 41.72 37.04 35.36"/><circle class="cls-2" cx="36.54" cy="45.27" r="2.52"/></g></g></svg>