<svg xmlns="http://www.w3.org/2000/svg" viewBox="0 0 53.96 49.93"><defs><style>.cls-1{fill:#fff;}</style></defs><title>корзина</title><g id="Слой_2" data-name="Слой 2"><g id="Слой_1-2" data-name="Слой 1"><path class="cls-1" d="M22.63,40.44a4.75,4.75,0,1,0,4.74,4.74A4.75,4.75,0,0,0,22.63,40.44Zm0,6.84a2.1,2.1,0,1,1,2.09-2.1A2.1,2.1,0,0,1,22.63,47.28Z"/><path class="cls-1" d="M39.27,40.44A4.75,4.75,0,1,0,44,45.18,4.75,4.75,0,0,0,39.27,40.44Zm0,6.84a2.1,2.1,0,1,1,2.1-2.1A2.1,2.1,0,0,1,39.27,47.28Z"/><path class="cls-1" d="M21.45,18.1h19a1.33,1.33,0,0,0,0-2.65h-19a1.33,1.33,0,0,0,0,2.65Z"/><path class="cls-1" d="M39.41,22.33H22.49a1.33,1.33,0,1,0,0,2.65H39.41a1.33,1.33,0,0,0,0-2.65Z"/><path class="cls-1" d="M53.36,9.55a2.62,2.62,0,0,0-2-1H10l-.83-4a2.7,2.7,0,0,0-1.54-1.9L1.85.11a1.32,1.32,0,0,0-1,2.43L6.61,5.06,13,36.18a2.67,2.67,0,0,0,2.6,2.12H47.36a1.33,1.33,0,0,0,0-2.65H15.62l-.78-3.79H47.6a2.67,2.67,0,0,0,2.6-2.11l3.7-18A2.63,2.63,0,0,0,53.36,9.55ZM47.6,29.21H14.29l-3.7-18H51.31Z"/></g></g></svg>