<svg xmlns="http://www.w3.org/2000/svg" viewBox="0 0 26.68 15.1"><defs><style>.cls-1{fill:#fff;fill-rule:evenodd;}</style></defs><title>Ресурс 26</title><g id="Слой_2" data-name="Слой 2"><g id="Слой_1-2" data-name="Слой 1"><path class="cls-1" d="M23,9.6c.88.87,1.81,1.68,2.61,2.63a7.94,7.94,0,0,1,.94,1.35c.36.7,0,1.46-.6,1.51H22a3,3,0,0,1-2.48-1c-.54-.55-1-1.13-1.55-1.7a3.75,3.75,0,0,0-.7-.62.82.82,0,0,0-1.3.31,4.11,4.11,0,0,0-.41,1.82c0,.91-.31,1.15-1.23,1.19A9.92,9.92,0,0,1,8.8,13.89a12.41,12.41,0,0,1-3.74-3.51A47.28,47.28,0,0,1,.13,1.6C-.18.91.05.54.82.53c1.26,0,2.53,0,3.8,0a1.11,1.11,0,0,1,1.06.79A23.24,23.24,0,0,0,8.26,6.1a4.12,4.12,0,0,0,1,1.07c.45.31.79.2,1-.3a3.45,3.45,0,0,0,.22-1,15.34,15.34,0,0,0-.06-3.52A1.47,1.47,0,0,0,9.15,1C8.78.94,8.83.81,9,.59A1.43,1.43,0,0,1,10.21,0H14.6c.69.14.85.45.94,1.14V6c0,.27.14,1.07.62,1.25s.65-.18.88-.43A15.32,15.32,0,0,0,19.51,3c.3-.6.56-1.23.81-1.85a.94.94,0,0,1,1-.68h4.23a2.31,2.31,0,0,1,.37,0c.71.12.91.42.69,1.12a10.77,10.77,0,0,1-1.68,2.92c-.71,1-1.46,1.91-2.16,2.9S22.17,8.82,23,9.6Z"/></g></g></svg>