<svg xmlns="http://www.w3.org/2000/svg" viewBox="0 0 12.06 22.31"><defs><style>.cls-1{fill:#fff;}</style></defs><title>Ресурс 25</title><g id="Слой_2" data-name="Слой 2"><g id="Слой_1-2" data-name="Слой 1"><path class="cls-1" d="M11.61,0H8.72C5.46,0,3.36,2.16,3.36,5.49V8H.45A.46.46,0,0,0,0,8.48v3.67a.45.45,0,0,0,.45.45H3.36v9.26a.46.46,0,0,0,.46.45H7.61a.45.45,0,0,0,.46-.45V12.6h3.4a.46.46,0,0,0,.46-.45V8.48A.48.48,0,0,0,11.47,8H8.07V5.88c0-1,.25-1.56,1.59-1.56h1.95a.45.45,0,0,0,.45-.45V.46A.46.46,0,0,0,11.61,0Z"/></g></g></svg>