<svg xmlns="http://www.w3.org/2000/svg" viewBox="0 0 13 21.65"><defs><style>.cls-1{fill:#fff;fill-rule:evenodd;}</style></defs><title>Ресурс 24</title><g id="Слой_2" data-name="Слой 2"><g id="Слой_1-2" data-name="Слой 1"><path class="cls-1" d="M5.43,15.25A8.46,8.46,0,0,1,1,13.65c-.16-.13-.33-.25-.48-.39A1.28,1.28,0,0,1,.3,11.45,1.28,1.28,0,0,1,2,11.07a2,2,0,0,1,.37.22,7.37,7.37,0,0,0,8.15.07,2.34,2.34,0,0,1,.8-.41,1.24,1.24,0,0,1,1.43.57,1.21,1.21,0,0,1-.09,1.59,6.49,6.49,0,0,1-2.37,1.53,11.15,11.15,0,0,1-2.7.61l.29.31,3.75,3.76a1.22,1.22,0,0,1,.27,1.45,1.47,1.47,0,0,1-1.38.87,1.39,1.39,0,0,1-.88-.45c-.94-1-1.9-1.88-2.82-2.84-.27-.28-.4-.23-.63,0-1,1-1.91,1.94-2.88,2.89a1.19,1.19,0,0,1-1.45.26A1.45,1.45,0,0,1,1,20.16a1.35,1.35,0,0,1,.45-.91l3.7-3.7.27-.3Z"/><path class="cls-1" d="M6.52,0A5.48,5.48,0,1,0,12,5.55,5.48,5.48,0,0,0,6.52,0Zm0,8.16A2.68,2.68,0,1,1,9.18,5.47,2.66,2.66,0,0,1,6.51,8.16Z"/></g></g></svg>